# xmcd
#
# Track frame offsets: 
#        150
#        22532
#        45059
#        62772
#        91984
#        123166
#        143846
#        166324
#        188506
#        211661
#        233333
#        256586
#
# Disc length: 3752 seconds
#
# Revision: 0
# Processed by: cddbd v1.5.2PL0 Copyright (c) Steve Scherf et al.
# Submitted via: ExactAudioCopy v1.0b3
#
DISCID=7b0ea60c
DTITLE=Phuong Dung - Nua Vanh Trang Doi
DYEAR=1996
DGENRE=
TTITLE0=Mot lan xa ben
TTITLE1=Bong nho duong chieu
TTITLE2=Tram men ngan thuong
TTITLE3=Noi buon thanh truc
TTITLE4=Nua vanh trang doi
TTITLE5=Nhat nang
TTITLE6=Trang ve thon da
TTITLE7=Noi buon dem dong
TTITLE8=Chieu hoang vang
TTITLE9=Canh nhan hoi am
TTITLE10=Dung noi voi anh
TTITLE11=Tinh anh linh chien
EXTD=
EXTT0=
EXTT1=
EXTT2=
EXTT3=
EXTT4=
EXTT5=
EXTT6=
EXTT7=
EXTT8=
EXTT9=
EXTT10=
EXTT11=
PLAYORDER=
